PathFileType	4	(X/Y/Z)	OpenSim_Sub06_CSStiffKnee_Gyro.trc
DataRate	CameraRate	NumFrames	NumMarkers	Units	OrigDataRate	OrigDataStartFrame	OrigNumFrames
100	100	13	8	m	100	3583	7164
Frame#	Time	torso_imu_offset_imu	pelvis_imu_offset_imu	tibia_r_imu_offset_imu	femur_r_imu_offset_imu	tibia_l_imu_offset_imu	femur_l_imu_offset_imu	toes_r_imu_offset_imu	toes_l_imu_offset_imu
				X1	Y1	Z1	X2	Y2	Z2	X3	Y3	Z3	X4	Y4	Z4	X5	Y5	Z5	X6	Y6	Z6	X7	Y7	Z7	X8		Y8	Z8	

3583	35.82000000	0.87150573	0.28360797	-0.19456247	1.02189286	-0.99256298	0.61657783	-2.47944974	-0.63042061	-1.78900566	-1.11715594	-1.64667331	-0.32200336	0.04200616	0.67794107	2.01948607	0.90894868	0.15616548	-0.28193800	-3.09306648	-1.77253770	-0.74881437	-0.34079899	-0.72394288	0.51577270
3584	35.83000000	0.74065642	0.45770747	-0.09525804	1.11497919	-0.77194256	1.13981304	-1.40704094	-0.46967104	-1.73952564	-0.68698373	-0.99272928	-0.24864526	-0.19965512	0.58117689	2.12819807	0.74221190	0.26401259	-0.56246947	2.91931247	1.10306849	-0.11579062	-0.47070978	-1.16370776	0.80917924
3585	35.84000000	0.52432346	0.34016966	0.08639473	0.44243594	-0.11451811	1.04899455	0.94847630	0.18790154	-1.91234953	0.27514423	0.61340874	0.38828062	-0.16782571	0.41233249	2.33335926	0.40046510	0.23309333	-0.92815190	-0.54160105	-0.20473633	-0.02310509	-0.62265218	-1.68684834	1.10939675
3586	35.85000000	0.49027017	0.19686066	0.26412237	-0.71237766	0.14959040	0.48491162	1.93073392	0.18639252	-2.24453118	-0.26351204	1.06213064	0.95437366	-0.13511262	0.13021616	2.56782586	0.08036102	0.11224283	-1.31936778	0.00923212	-0.30714653	0.18186815	-0.69868776	-2.24362398	1.35835971
3587	35.86000000	0.53848695	0.11947969	0.35103417	-0.89973902	0.28062206	0.09020388	2.78739582	0.33892551	-2.20928344	-0.94806066	0.42043277	0.97228088	0.00285038	-0.16102061	2.66423578	0.09904513	0.21984506	-1.64565675	-0.33877026	-0.42803008	0.28624205	-0.74625808	-2.88687483	1.60804996
3588	35.87000000	0.53831385	0.04798935	0.38500792	-0.57828540	0.34877262	-0.12274115	4.22197242	0.49768975	-1.78050737	-0.62753403	-0.25500216	0.45485798	0.28528169	-0.26682632	2.67904688	0.11530788	0.46672776	-2.00010088	-0.18984820	-0.32408658	0.38855759	-0.82924104	-3.39538914	1.85041786
3589	35.88000000	0.44010833	0.01707849	0.44360391	-0.13219188	0.25251319	-0.20896398	4.46832427	-0.09833361	-1.12497150	0.03810748	-0.53188154	-0.17044449	0.49225396	-0.30149270	2.72842116	0.09944575	0.82511801	-2.33613674	-0.20448267	-0.27174549	0.36251214	-0.29916757	-3.91807420	2.04912961
3590	35.89000000	0.42512945	-0.01328952	0.48000777	0.27922116	0.11518520	-0.31194570	3.33707532	-0.63359047	-0.66368101	0.28232406	-0.53654630	-0.62523479	0.63916546	-0.42885114	2.83005976	0.25352758	1.23229059	-2.47641841	-0.12433315	-0.19460698	0.29694470	0.18229790	-4.44464542	2.20856867
3591	35.90000000	0.60899326	-0.10425319	0.43435540	0.56182690	0.04080342	-0.28244028	2.25555899	-0.60259006	-0.48322460	-0.07817002	-0.53030718	-0.94565000	0.80277272	-0.58280596	2.86374275	0.31658116	1.47253006	-2.44673711	-0.04881080	-0.05274828	0.17658603	1.04446763	-4.70427578	2.25672626
3592	35.91000000	0.76066237	-0.11723526	0.35626383	0.69729356	0.02586169	-0.13168798	1.75155359	-0.32294991	-0.24446628	-0.67492107	-0.71901537	-1.06440763	0.90763719	-0.60778595	2.71400194	0.10241395	1.44445280	-2.29636369	0.03309759	0.05961464	0.06292103	0.99428937	-4.82551555	2.33486519
3593	35.92000000	0.80831083	-0.07525913	0.23708690	0.73268506	0.02641057	0.02335611	1.07181607	-0.33098475	-0.04183481	-1.11174278	-0.99999955	-1.03033032	0.89108429	-0.47472798	2.40808841	-0.30323419	1.24746983	-2.07067893	0.06601554	0.14547159	0.02527048	0.24927639	-4.74139737	2.39935963
3594	35.93000000	0.80951402	-0.00746363	0.12376611	0.78876845	0.03411093	0.13826613	0.07595515	-0.50651899	-0.17605626	-1.07623672	-0.96569557	-0.89072578	0.77159547	-0.32938545	2.05823357	-0.70230365	0.91346856	-1.83896664	0.06838270	0.17430794	0.00317004	0.18513228	-4.55790007	2.39103112
3595	35.94000000	0.76583864	0.06962174	0.07147650	0.88195522	0.03235299	0.22243080	-0.78016823	-0.43688203	-0.40208234	-0.46655794	-0.59473642	-0.86301880	0.66452365	-0.28709495	1.73638423	-0.83618213	0.58547876	-1.56564591	0.07530381	0.13823022	-0.00495869	0.21415284	-4.01883939	2.17198370
